<?xml version="1.0" standalone="no"?>
<!DOCTYPE svg PUBLIC "-//W3C//DTD SVG 20010904//EN"
 "http://www.w3.org/TR/2001/REC-SVG-20010904/DTD/svg10.dtd">
<svg version="1.0" xmlns="http://www.w3.org/2000/svg"
 width="920.000000pt" height="919.000000pt" viewBox="0 0 920.000000 919.000000"
 preserveAspectRatio="xMidYMid meet">

<g transform="translate(0.000000,919.000000) scale(0.100000,-0.100000)"
fill="#000000" stroke="none">
<path d="M5291 9180 c-149 -21 -310 -89 -414 -176 -53 -44 -1515 -1471 -3127
-3053 -267 -262 -714 -701 -995 -976 -280 -275 -527 -519 -547 -543 -88 -100
-143 -206 -181 -346 -17 -64 -21 -109 -21 -211 0 -142 14 -213 65 -337 59
-143 114 -207 727 -831 223 -228 245 -242 377 -242 110 0 150 16 248 99 95 81
167 122 277 157 172 56 360 50 539 -17 226 -85 415 -318 457 -564 35 -204 -8
-407 -119 -569 -16 -24 -57 -74 -90 -110 -82 -91 -101 -135 -102 -241 0 -116
25 -164 152 -295 54 -55 231 -237 393 -404 162 -167 323 -323 357 -347 79 -57
188 -107 294 -135 106 -28 288 -31 393 -5 101 24 211 71 290 124 64 42 827
781 1841 1782 138 135 590 579 1005 985 1291 1264 1773 1737 1838 1804 116
120 183 240 229 411 25 96 22 299 -6 405 -26 99 -85 222 -139 294 -23 30 -215
234 -426 452 -418 431 -434 444 -549 456 -40 4 -73 0 -124 -15 -68 -21 -82
-30 -202 -125 -80 -63 -184 -112 -298 -138 -79 -18 -113 -21 -211 -16 -137 7
-207 24 -317 77 -201 97 -350 290 -396 513 -24 116 -24 208 0 322 30 147 92
261 209 388 77 84 96 132 96 237 0 120 -19 155 -178 320 -676 702 -704 728
-848 794 -144 67 -343 97 -497 76z m186 -655 c47 -14 71 -36 314 -286 l263
-271 -18 -32 c-87 -148 -139 -286 -177 -468 -28 -133 -31 -369 -5 -503 74
-396 289 -726 617 -944 113 -76 206 -121 343 -166 164 -53 266 -69 451 -68
235 0 410 42 634 150 l94 45 38 -39 c265 -269 475 -495 490 -528 23 -49 24
-112 3 -165 -12 -31 -268 -286 -1142 -1142 -1108 -1085 -1420 -1390 -1897
-1859 -1006 -989 -1571 -1537 -1602 -1553 -20 -11 -59 -21 -87 -24 -86 -7
-123 22 -397 306 -134 139 -245 256 -247 261 -2 5 13 36 33 70 179 306 227
734 121 1096 -70 237 -182 423 -365 605 -296 295 -687 439 -1109 409 -186 -14
-365 -64 -541 -152 l-83 -42 -254 260 c-145 149 -262 277 -274 301 -27 55 -26
129 2 182 15 27 334 346 868 869 465 454 1061 1038 1325 1297 1467 1440 2414
2365 2436 2376 24 14 71 27 100 29 8 1 38 -6 66 -14z"/>
<path d="M4765 6331 c-87 -22 -113 -47 -1072 -1005 -794 -793 -966 -970 -985
-1011 -34 -73 -33 -210 1 -279 33 -66 91 -122 160 -155 46 -21 70 -26 136 -26
155 0 85 -61 1161 1017 1064 1066 997 990 998 1138 1 66 -4 85 -32 143 -55
111 -153 177 -272 183 -36 2 -78 0 -95 -5z"/>
<path d="M5737 5346 c-26 -7 -71 -29 -100 -49 -28 -20 -471 -456 -984 -969
-1051 -1052 -988 -980 -988 -1133 0 -65 5 -90 26 -135 31 -66 95 -131 158
-161 70 -33 179 -37 256 -9 58 22 93 55 1023 984 1082 1080 1017 1006 1017
1156 0 100 -20 154 -84 223 -76 82 -218 123 -324 93z"/>
</g>
</svg>
